<?xml version="1.0" encoding="utf-8"?>
<!-- Generator: Adobe Illustrator 19.0.0, SVG Export Plug-In . SVG Version: 6.00 Build 0)  -->
<svg version="1.1" id="Layer_1" xmlns="http://www.w3.org/2000/svg" xmlns:xlink="http://www.w3.org/1999/xlink" x="0px" y="0px"
	 viewBox="-47 170.9 500 500" style="enable-background:new -47 170.9 500 500;" xml:space="preserve">
<style type="text/css">
	.st0{display:none;}
	.st1{display:inline;}
	.st2{fill:#B2B2B2;}
	.st3{fill:#FFFFFF;}
</style>
<g id="max_width__x2F__height" class="st0">
	<path class="st1" d="M452,171.9v498H-46v-498H452 M453,170.9H-47v500h500V170.9L453,170.9z"/>
</g>
<g id="androd">
	<path class="st2" d="M254.3,254.2l20.2-29.3c1.2-1.7,0.9-4-0.7-5.1c-1.6-1.1-3.8-0.5-5,1.2l-21,30.4c-13.8-5.4-29.1-8.5-45.3-8.5
		s-31.5,3-45.3,8.5L136.3,221c-1.2-1.7-3.4-2.3-5-1.2c-1.6,1.1-1.9,3.4-0.7,5.1l20.2,29.3c-32.1,14.9-54.5,43.3-57.4,76.3h218.3
		C308.9,297.4,286.4,269.1,254.3,254.2"/>
	<path class="st3" d="M157,300.3c-6.7,0-12.1-5.4-12.1-12.1c0-6.7,5.4-12.1,12.1-12.1c6.7,0,12.1,5.4,12.1,12.1
		C169,294.9,163.6,300.3,157,300.3"/>
	<path class="st3" d="M248.2,300.3c-6.7,0-12.1-5.4-12.1-12.1c0-6.7,5.4-12.1,12.1-12.1c6.7,0,12.1,5.4,12.1,12.1
		C260.2,294.9,254.8,300.3,248.2,300.3"/>
	<path class="st2" d="M79.4,468.5c0,13.5-10.9,24.4-24.4,24.4l0,0c-13.4,0-24.4-10.9-24.4-24.4V370c0-13.5,10.9-24.4,24.4-24.4l0,0
		c13.5,0,24.4,10.9,24.4,24.4C79.4,370,79.4,468.5,79.4,468.5z"/>
	<path class="st2" d="M93.4,346.4v177.9c0,10.6,8.6,19.1,19.1,19.1h22.6v54.7c0,13.5,10.9,24.4,24.4,24.4s24.4-10.9,24.4-24.4v-54.7
		h37.4v54.7c0,13.5,10.9,24.4,24.4,24.4s24.4-10.9,24.4-24.4v-54.7h22.6c10.6,0,19.1-8.6,19.1-19.1V346.4H93.4z"/>
	<path class="st2" d="M325.7,468.5c0,13.5,10.9,24.4,24.4,24.4l0,0c13.5,0,24.4-10.9,24.4-24.4V370c0-13.5-10.9-24.4-24.4-24.4l0,0
		c-13.5,0-24.4,10.9-24.4,24.4V468.5z"/>
</g>
</svg>
