<?xml version="1.0" encoding="utf-8"?>
<!-- Generator: Adobe Illustrator 19.0.0, SVG Export Plug-In . SVG Version: 6.00 Build 0)  -->
<svg version="1.1" id="Layer_1" xmlns="http://www.w3.org/2000/svg" xmlns:xlink="http://www.w3.org/1999/xlink" x="0px" y="0px"
	 viewBox="-271 394.7 52.2 52.2" style="enable-background:new -271 394.7 52.2 52.2;" xml:space="preserve">
<style type="text/css">
	.st0{fill:#7C7C7C;}
	.st1{fill:#FFFFFF;}
</style>
<g>
	<path class="st0" d="M-268.9,438.6c0,3.4,2.8,6.2,6.2,6.2h35.6c3.4,0,6.2-2.8,6.2-6.2V403c0-3.4-2.8-6.2-6.2-6.2h-35.6
		c-3.4,0-6.2,2.8-6.2,6.2V438.6z"/>
	<path class="st1" d="M-249,418v-6.8h6c0.6,0,1.1,0,1.6,0.1s1,0.3,1.4,0.5s0.7,0.6,1,1c0.2,0.4,0.4,1,0.4,1.7c0,1.2-0.4,2.1-1.1,2.6
		s-1.7,0.8-2.8,0.8L-249,418L-249,418z M-255.4,406.3v29.1h14.1c1.3,0,2.6-0.2,3.8-0.5c1.2-0.3,2.3-0.8,3.3-1.5s1.7-1.6,2.3-2.6
		c0.6-1.1,0.9-2.3,0.9-3.8c0-1.8-0.4-3.4-1.3-4.7c-0.9-1.3-2.2-2.2-4-2.7c1.3-0.6,2.3-1.4,3-2.4s1-2.2,1-3.7c0-1.4-0.2-2.5-0.7-3.4
		c-0.4-0.9-1.1-1.7-1.9-2.2c-0.8-0.6-1.8-1-2.9-1.2s-2.4-0.4-3.8-0.4L-255.4,406.3L-255.4,406.3z M-249,430.4v-8h7
		c1.4,0,2.5,0.3,3.3,1c0.8,0.6,1.3,1.7,1.3,3.2c0,0.8-0.1,1.4-0.4,1.9s-0.6,0.9-1,1.2c-0.4,0.3-0.9,0.5-1.5,0.6s-1.2,0.2-1.8,0.2
		h-6.9V430.4z"/>
</g>
</svg>
