<?xml version="1.0" encoding="utf-8"?>
<!-- Generator: Adobe Illustrator 19.0.0, SVG Export Plug-In . SVG Version: 6.00 Build 0)  -->
<svg version="1.1" id="Layer_1" xmlns="http://www.w3.org/2000/svg" xmlns:xlink="http://www.w3.org/1999/xlink" x="0px" y="0px"
	 viewBox="-231 354.9 132.3 133" style="enable-background:new -231 354.9 132.3 133;" xml:space="preserve">
<style type="text/css">
	.st0{fill:#AAAAAA;}
</style>
<title>logo</title>
<path d="M-288.7,1491.6c-20.3,0-30.5-14.6-30.5-30.8c0-16.1,10.6-30.6,30.7-30.6c7.7,0,13.2,1.7,17.9,4.7l-5.8,9.5
	c-3.3-2.1-6.9-3.4-12.3-3.4c-10.9,0-16.7,8.7-16.7,19.5c0,11.1,5.6,20.3,16.9,20.3c6.4,0,10.2-2.2,13.3-4.5l5.3,9.1
	C-272.9,1488.1-280,1491.6-288.7,1491.6L-288.7,1491.6z M-245.6,1455.2c-6.5,0-8.6,5.5-8.6,13.5s2.6,13.7,9.1,13.7
	c6.6,0,8.8-5.4,8.8-13.4C-236.4,1461-239,1455.2-245.6,1455.2L-245.6,1455.2z M-245.4,1491.6c-15.2,0-21.8-11.4-21.8-22.6
	s6.6-22.9,21.8-22.9c15.2,0,22.1,11.3,22.1,22.5C-223.4,1479.7-230.1,1491.6-245.4,1491.6z M-204.2,1447.2v27.8
	c0,4.3,1.5,6.4,5.6,6.4c4.4,0,7.7-4.2,8.6-5.2v-29h12.2v30.6c0,5.7,0.6,10.1,1.2,12.7h-12.1c-0.4-1.2-0.8-4-0.9-5.8
	c-2.3,3-6.8,6.8-14,6.8c-9.6,0-13-6.1-13-14.1v-30.3L-204.2,1447.2L-204.2,1447.2L-204.2,1447.2z M-147.7,1491.6
	c-14,0-22.6-9.1-22.6-22.7c0-14.6,9.7-22.8,23-22.8c7,0,11.2,2.1,13.3,3.4l-3.9,8.4c-1.9-1.2-4.7-2.5-9-2.5
	c-6.8,0-10.4,5.3-10.4,13.2s3.4,13.6,10.7,13.6c5,0,7.9-1.8,9.2-2.6l3.7,8.2C-135.7,1489.1-139.7,1491.6-147.7,1491.6L-147.7,1491.6
	z M-100.9,1490.6v-27.9c0-4.3-1.5-6.4-5.6-6.4c-4.4,0-7.8,4.1-8.7,5.2v29h-12.2v-64h12.2v25.8c2.2-2.4,6.4-6.2,13.5-6.2
	c9.6,0,13,6.1,13,14.1v30.3L-100.9,1490.6L-100.9,1490.6L-100.9,1490.6z M-66.5,1481.1c0.8,0.3,2.6,0.9,5.8,0.9
	c6.3,0,10.2-4.6,10.2-13.5c0-8-2.7-12.8-8.9-12.8c-3.6,0-6.4,2.3-7.1,3.2V1481.1L-66.5,1481.1z M-66.5,1426.6v24
	c2-2,5.8-4.5,10.6-4.5c10.8,0,18.4,7.4,18.4,22.4c0,14.9-10,23.1-23.2,23.1c-9.9,0-15.9-2.5-18.1-3.5v-61.6L-66.5,1426.6
	L-66.5,1426.6L-66.5,1426.6z M-8.4,1471.5h-1.5c-6.7,0-11.4,2-11.4,6.9c0,3.1,2.5,4.4,5.2,4.4c4.1,0,6.5-2.4,7.7-3.6V1471.5
	L-8.4,1471.5z M-7.1,1490.6c-0.4-1.1-0.6-3.3-0.7-4.6c-1.9,2.3-6,5.7-12.1,5.7c-7.4,0-13.1-4.4-13.1-12.2
	c0-11.3,11.6-15.4,23.1-15.4h1.5v-2.4c0-3.6-1.5-5.8-6.9-5.8c-5.6,0-9.4,2.9-11,4l-5.3-7.4c2.6-2.4,8.4-6.3,17.7-6.3
	c12,0,17.7,4.6,17.7,16.2v15.2c0,6,0.6,10.2,1.2,13L-7.1,1490.6L-7.1,1490.6z M25.8,1491.6c-7.8,0-12.8-2.3-15.5-4.1l4.1-8.5
	c1.7,1.2,5.9,3.6,10.7,3.6c4.5,0,7-1.3,7-3.7c0-2.8-4.9-3.6-11.1-6.6c-6-2.9-9.5-6.2-9.5-12.8c0-8.2,6.5-13.4,16.4-13.4
	c7.4,0,12,2.3,14,3.4l-4.2,8.3c-1.7-1-5.1-2.7-9.2-2.7s-5.9,1.4-5.9,3.7c0,2.8,4,3.5,9,5.5c6.8,2.8,11.7,6,11.7,13.2
	C43.1,1486.8,36.5,1491.6,25.8,1491.6L25.8,1491.6z M76.1,1463.6c-0.1-4.8-2-8.7-7.2-8.7c-4.8,0-7.6,3.1-8.4,8.7H76.1L76.1,1463.6z
	 M71.5,1482.6c5.9,0,9.1-1.9,11.3-3l3.9,7.8c-2.9,1.6-7.3,4.2-16.3,4.2c-14.6,0-22.9-9.1-22.9-23c0-13.8,9.5-22.5,21.6-22.5
	c13.7,0,20.3,9.5,18.8,25.7H60.6C61.1,1478.3,64.5,1482.6,71.5,1482.6z"/>
<path class="st0" d="M-164.8,355.2c-36.5,0-66.2,29.6-66.2,66.2c0,36.5,29.6,66.2,66.2,66.2c36.5,0,66.2-29.6,66.2-66.2
	S-128.3,355.2-164.8,355.2L-164.8,355.2z M-120.1,433c0,4-2.3,7.5-6.8,8.3c-7.8,1.4-24.2,2.2-37.9,2.2s-30.1-0.8-37.9-2.2
	c-4.5-0.8-6.8-4.3-6.8-8.3v-25.8c0-4,3.1-7.7,6.8-8.3c2.3-0.4,7.7-0.8,11.9-0.8c1.6,0,2.9,1.2,2.9,3.1v18.1l23.2-0.5l23.2,0.5v-18.1
	c0-1.9,1.3-3.1,2.9-3.1c4.2,0,9.6,0.4,11.9,0.8c3.8,0.6,6.8,4.3,6.8,8.3C-120.1,415.7-120.1,424.4-120.1,433z"/>
</svg>
