<?xml version="1.0" encoding="utf-8"?>
<!-- Generator: Adobe Illustrator 19.0.0, SVG Export Plug-In . SVG Version: 6.00 Build 0)  -->
<svg version="1.1" id="Layer_1" xmlns="http://www.w3.org/2000/svg" xmlns:xlink="http://www.w3.org/1999/xlink" x="0px" y="0px"
	 viewBox="-12 165.9 570 510" style="enable-background:new -12 165.9 570 510;" xml:space="preserve">
<style type="text/css">
	.st0{fill:#969696;stroke:#A0A0A0;stroke-miterlimit:10;}
	.st1{fill:#969696;fill-opacity:0;stroke:#A0A0A0;stroke-width:24;stroke-miterlimit:10;}
</style>
<g id="Layer_1_1_">
	<path class="st0" d="M322.7,420.5c0,27.7-22.5,50.2-50.2,50.2s-50.2-22.5-50.2-50.2c0-27.7,22.5-50.2,50.2-50.2
		S322.7,392.8,322.7,420.5z"/>
	<path class="st1" d="M272.5,318.5c67.4,0,129.9,9.7,177.1,25.9c56.8,19.6,91.8,49.2,91.8,76.1c0,28-37,59.5-98.1,79.7
		c-46.2,15.3-106.9,23.3-170.8,23.3c-65.6,0-127.6-7.5-174.3-23.4c-59-20.2-94.6-52.1-94.6-79.6c0-26.6,33.4-56.1,89.4-75.6
		C140.4,328.4,204.5,318.5,272.5,318.5z"/>
	<path class="st1" d="M183.7,369.8c33.6-58.3,73.3-107.7,110.9-140.5c45.4-39.5,88.5-54.9,111.8-41.5c24.2,14,33,61.8,20.1,124.8
		c-9.8,47.6-33.2,104.2-65.2,159.6C328.6,529,291.1,579,253.9,611.5c-47,41.1-92.4,55.9-116.2,42.2c-23.1-13.3-31.9-56.9-20.8-115.2
		C126.3,489.2,149.8,428.7,183.7,369.8z"/>
	<path class="st1" d="M183.8,472.4c-33.7-58.3-56.7-117.3-66.3-166.3c-11.5-59-3.4-104.1,19.9-117.6c24.2-14,70.1,2.2,118.1,44.9
		c36.4,32.3,73.7,80.8,105.7,136.2c32.8,56.7,57.5,114.2,67,162.6c12.1,61.2,2.3,108-21.5,121.7c-23.1,13.3-65.2-0.8-110.2-39.5
		C258.6,581.8,217.9,531.2,183.8,472.4z"/>
</g>
</svg>
