<?xml version="1.0" encoding="utf-8"?>
<!-- Generator: Adobe Illustrator 19.0.0, SVG Export Plug-In . SVG Version: 6.00 Build 0)  -->
<svg version="1.1" id="Layer_1" xmlns="http://www.w3.org/2000/svg" xmlns:xlink="http://www.w3.org/1999/xlink" x="0px" y="0px"
	 viewBox="374.8 214.8 1239.2 412.2" style="enable-background:new 374.8 214.8 1239.2 412.2;" xml:space="preserve">
<style type="text/css">
	.st0{display:none;fill:#FFFFFF;}
	.st1{fill:#00BEC2;}
	.st2{fill:none;stroke:#00BEC2;stroke-width:5;stroke-miterlimit:10;}
</style>
<path class="st0" d="M-103.7,863.9h478.4v160.5h-478.3V863.9H-103.7z"/>
<path class="st1" d="M965.3,232.5c69.8-21.5,150.4,0.3,200.3,53.5c63.8,65.1,71.9,175.1,19.2,249.1c-46.5,69-138.8,101.6-218.4,77.2
	c-85.6-23.1-148.4-110-142.3-198.4C825.6,331.2,885.7,254.6,965.3,232.5z"/>
<path class="st2" d="M533,229.9c109.4-29.6,230.4,54.1,241.2,166.7c13.9,90.3-44.1,184.5-131,212.6c-77.2,27.6-169.8,1-219.9-63.8
	c-47.5-58.3-55.6-143.8-22.6-210.8C426.2,281.9,476.1,242.8,533,229.9z"/>
<path class="st1" d="M1359.7,280.6c2.4-22.8,17.1-40.9,29.7-59.1c12.6,18.4,25.5,36.5,34.9,56.7c-11.5-8.7-21-19.9-29.9-31.2
	c2.1,79,0.5,158.3,1,237.5c59.1,39.9,119.2,78.5,178.2,118.4c-5.2-12.6-10.2-24.9-15-37.8c19.4,11.8,23.4,36,32.8,55.1
	c-20.2-0.3-40.4-0.3-60.6-0.3c0.3-2.1,0.8-6.6,1-8.7c8.9,0.3,26.8,0.5,35.4,0.5c-59.6-38.6-117.8-78.7-177.7-117.1
	c-58.8,38.6-117.1,78.5-176.9,115.5c13.9,1.3,27.3,3.9,40.7,7.6c-21.5,2.1-43.3,2.4-64.8,2.4c7.6-21,17.1-41.5,31.2-59.1
	c-4.2,13.9-8.9,28.1-13.6,42c59.4-39.5,118.7-79.4,178.6-118c0.3-80-0.5-160.4,0.5-240.4C1377.1,256.4,1368.7,268.8,1359.7,280.6z"
	/>
</svg>
