<?xml version="1.0" encoding="utf-8"?>
<!-- Generator: Adobe Illustrator 19.0.0, SVG Export Plug-In . SVG Version: 6.00 Build 0)  -->
<svg version="1.1" id="Layer_1" xmlns="http://www.w3.org/2000/svg" xmlns:xlink="http://www.w3.org/1999/xlink" x="0px" y="0px"
	 viewBox="322 214.7 1239.2 412.2" style="enable-background:new 322 214.7 1239.2 412.2;" xml:space="preserve">
<style type="text/css">
	.st0{display:none;fill:#FFFFFF;}
	.st1{fill:#00B19D;}
	.st2{fill:none;stroke:#00B19D;stroke-width:5;stroke-miterlimit:10;}
</style>
<path class="st0" d="M218.3,1078.6h478.4v160.5H218.4v-160.5H218.3z"/>
<path class="st1" d="M920.8,230.1c69.8-21.5,150.4,0.3,200.3,53.5c63.8,65.1,71.9,175.1,19.2,249.1c-46.5,69-138.8,101.6-218.4,77.2
	c-85.6-23.1-148.4-110-142.3-198.4C781.1,328.8,841.2,252.2,920.8,230.1z"/>
<path class="st2" d="M488.5,227.5c109.4-29.6,230.4,54.1,241.2,166.7c13.9,90.3-44.1,184.5-131,212.6c-77.2,27.6-169.8,1-219.9-63.8
	c-47.5-58.3-55.6-143.8-22.6-210.8C381.7,279.5,431.6,240.4,488.5,227.5z"/>
<path class="st1" d="M1543.9,617.8c-7.6-21-17.1-41.5-31.2-59.1l13.1,40.7c-57.1-38.5-118.1-78.9-174.9-117.3
	c-0.5-79.2,1.1-158.5-1-237.5c8.9,11.3,18.4,22.5,29.9,31.2c-9.4-20.2-22.3-38.3-34.9-56.7c-12.6,18.2-27.3,36.3-29.7,59.1
	c9-11.8,17.4-24.2,25.5-36c-1,80-0.2,160.4-0.5,240.4c-59.9,38.6-119.2,78.5-178.6,118c4.7-13.9,9.4-28.1,13.6-42
	c-14.1,17.6-23.6,38.1-31.2,59.1c21.5,0,43.3-0.3,64.8-2.4c-13.4-3.7-26.8-6.3-40.7-7.6c59.8-37,118.1-76.9,176.9-115.5
	c57.8,37.1,117.3,78.9,174.9,116.5c-13.3,1.4-29.9,3.7-40.8,6.7C1500.6,617.5,1522.4,617.8,1543.9,617.8z"/>
</svg>
