<?xml version="1.0" encoding="utf-8"?>
<!-- Generator: Adobe Illustrator 19.0.0, SVG Export Plug-In . SVG Version: 6.00 Build 0)  -->
<svg version="1.1" id="Layer_1" xmlns="http://www.w3.org/2000/svg" xmlns:xlink="http://www.w3.org/1999/xlink" x="0px" y="0px"
	 viewBox="322 214.7 904.1 412.2" style="enable-background:new 322 214.7 904.1 412.2;" xml:space="preserve">
<style type="text/css">
	.st0{display:none;fill:#FFFFFF;}
	.st1{fill:#00B19D;}
	.st2{fill:none;stroke:#00B19D;stroke-width:5;stroke-miterlimit:10;}
	.st3{filter:url(#Adobe_OpacityMaskFilter);}
	.st4{mask:url(#SVGID_1_);fill:#FFFFFF;}
	.st5{filter:url(#Adobe_OpacityMaskFilter_1_);}
	.st6{mask:url(#SVGID_2_);fill:#FFFFFF;}
</style>
<path class="st0" d="M540.3,1293.3h478.4v160.5H540.4v-160.5H540.3z"/>
<path class="st1" d="M1215.8,613.4c-7.6-21-17.1-41.5-31.2-59.1l13.1,40.7c-57.1-38.5-118.1-78.9-174.9-117.3
	c-0.5-79.2,1.1-158.5-1-237.5c8.9,11.3,18.4,22.5,29.9,31.2c-9.4-20.2-22.3-38.3-34.9-56.7c-12.6,18.2-27.3,36.3-29.7,59.1
	c9-11.8,17.4-24.2,25.5-36c-1,80-0.2,160.4-0.5,240.4c-59.9,38.6-119.2,78.5-178.6,118c4.7-13.9,9.4-28.1,13.6-42
	c-14.1,17.6-23.6,38.1-31.2,59.1c21.5,0,43.3-0.3,64.8-2.4c-13.4-3.7-26.8-6.3-40.7-7.6c59.8-37,118.1-76.9,176.9-115.5
	c57.8,37.1,117.3,78.9,174.9,116.5c-13.3,1.4-29.9,3.7-40.8,6.7C1172.5,613.1,1194.3,613.4,1215.8,613.4z"/>
<path class="st1" d="M747.8,230.9c69.8-21.5,150.4,0.3,200.3,53.5c63.8,65.1,71.9,175.1,19.2,249.1c-46.5,69-138.8,101.6-218.4,77.2
	c-85.6-23.1-148.4-110-142.3-198.4C608.1,329.6,668.2,253,747.8,230.9z"/>
<path class="st2" d="M480.5,229.8c109.4-29.6,230.4,54.1,241.2,166.7c13.9,90.3-44.1,184.5-131,212.6c-77.2,27.6-169.8,1-219.9-63.8
	c-47.5-58.3-55.6-143.8-22.6-210.8C373.7,281.8,423.6,242.7,480.5,229.8z"/>
<defs>
	<filter id="Adobe_OpacityMaskFilter" filterUnits="userSpaceOnUse" x="606.2" y="222.7" width="395.8" height="396">
		<feColorMatrix  type="matrix" values="1 0 0 0 0  0 1 0 0 0  0 0 1 0 0  0 0 0 1 0"/>
	</filter>
</defs>
<mask maskUnits="userSpaceOnUse" x="606.2" y="222.7" width="395.8" height="396" id="SVGID_1_">
	<g class="st3">
		<path class="st2" d="M480.5,229.8c109.4-29.6,230.4,54.1,241.2,166.7c13.9,90.3-44.1,184.5-131,212.6
			c-77.2,27.6-169.8,1-219.9-63.8c-47.5-58.3-55.6-143.8-22.6-210.8C373.7,281.8,423.6,242.7,480.5,229.8z"/>
	</g>
</mask>
<path class="st4" d="M747.8,230.9c69.8-21.5,150.4,0.3,200.3,53.5c63.8,65.1,71.9,175.1,19.2,249.1c-46.5,69-138.8,101.6-218.4,77.2
	c-85.6-23.1-148.4-110-142.3-198.4C608.1,329.6,668.2,253,747.8,230.9z"/>
<defs>
	<filter id="Adobe_OpacityMaskFilter_1_" filterUnits="userSpaceOnUse" x="815.9" y="214.7" width="399.9" height="398.7">
		<feColorMatrix  type="matrix" values="1 0 0 0 0  0 1 0 0 0  0 0 1 0 0  0 0 0 1 0"/>
	</filter>
</defs>
<mask maskUnits="userSpaceOnUse" x="815.9" y="214.7" width="399.9" height="398.7" id="SVGID_2_">
	<g class="st5">
		<path class="st1" d="M747.8,230.9c69.8-21.5,150.4,0.3,200.3,53.5c63.8,65.1,71.9,175.1,19.2,249.1
			c-46.5,69-138.8,101.6-218.4,77.2c-85.6-23.1-148.4-110-142.3-198.4C608.1,329.6,668.2,253,747.8,230.9z"/>
	</g>
</mask>
<path class="st6" d="M1215.8,613.4c-7.6-21-17.1-41.5-31.2-59.1l13.1,40.7c-57.1-38.5-118.1-78.9-174.9-117.3
	c-0.5-79.2,1.1-158.5-1-237.5c8.9,11.3,18.4,22.5,29.9,31.2c-9.4-20.2-22.3-38.3-34.9-56.7c-12.6,18.2-27.3,36.3-29.7,59.1
	c9-11.8,17.4-24.2,25.5-36c-1,80-0.2,160.4-0.5,240.4c-59.9,38.6-119.2,78.5-178.6,118c4.7-13.9,9.4-28.1,13.6-42
	c-14.1,17.6-23.6,38.1-31.2,59.1c21.5,0,43.3-0.3,64.8-2.4c-13.4-3.7-26.8-6.3-40.7-7.6c59.8-37,118.1-76.9,176.9-115.5
	c57.8,37.1,117.3,78.9,174.9,116.5c-13.3,1.4-29.9,3.7-40.8,6.7C1172.5,613.1,1194.3,613.4,1215.8,613.4z"/>
</svg>
