<?xml version="1.0" encoding="utf-8"?>
<!-- Generator: Adobe Illustrator 19.0.0, SVG Export Plug-In . SVG Version: 6.00 Build 0)  -->
<svg version="1.1" id="Layer_1" xmlns="http://www.w3.org/2000/svg" xmlns:xlink="http://www.w3.org/1999/xlink" x="0px" y="0px"
	 viewBox="510 214.7 410.7 412.2" style="enable-background:new 510 214.7 410.7 412.2;" xml:space="preserve">
<style type="text/css">
	.st0{display:none;fill:#FFFFFF;}
	.st1{fill:#00B19D;stroke:#00B19D;stroke-width:5;stroke-miterlimit:10;}
	.st2{fill:#FFFFFF;}
	.st3{fill:#00B19D;}
	.st4{fill:#FFFFFF;stroke:#00B19D;stroke-miterlimit:10;}
</style>
<path class="st0" d="M540.3,1293.3h478.4v160.5H540.4v-160.5H540.3z"/>
<path class="st1" d="M658.8,231c69.8-21.5,150.4,0.3,200.3,53.5c63.8,65.1,71.9,175.1,19.2,249.1c-46.5,69-138.8,101.6-218.4,77.2
	c-85.6-23.1-148.4-110-142.3-198.4C519.1,329.7,579.2,253.1,658.8,231z"/>
<path class="st2" d="M659.7,233.9c68.7-21.2,148.1,0.3,197.2,52.7c62.8,64.1,70.8,172.4,18.9,245.3c-45.8,67.9-136.7,100-215.1,76
	c-84.3-22.7-146.1-108.3-140.1-195.4C522.1,331.1,581.3,255.6,659.7,233.9z"/>
<path class="st3" d="M661.4,239.6c66.6-20.5,143.5,0.3,191.2,51.1c60.9,62.1,68.6,167.1,18.3,237.7c-44.4,65.9-132.5,97-208.4,73.7
	c-81.7-22-141.6-105-135.8-189.3C528.1,333.8,585.4,260.7,661.4,239.6z"/>
<path class="st4" d="M1320.7,617.4"/>
<path class="st4" d="M1287.1,560.7"/>
<path class="st2" d="M858.1,529.8c-5.4-15-12.2-29.7-22.3-42.2l9.4,29.1c-40.8-27.5-84.4-56.4-125-83.8
	c-0.4-56.6,0.8-113.3-0.7-169.8c6.4,8.1,11.4,14.4,20.2,22.2c-10.1-21.2-14.7-27.3-23.7-40.5c-9,13-16.3,23.7-20.8,40.5
	c6.4-8.4,12-13.9,17.8-22.3c-0.7,57.2-0.1,113-0.4,170.2c-42.8,27.6-85.2,56.1-127.7,84.3c3.4-9.9,6.7-20.1,9.7-30
	c-10.1,12.6-16.9,27.2-22.3,42.2c15.4,0,30.9-0.2,46.3-1.7c-9.6-2.6-19.2-4.5-29.1-5.4c42.7-26.4,84.4-55,126.4-82.6
	c41.3,26.5,83.8,56.4,125,83.3c-9.5,1-21.4,2.6-29.2,4.8C827.1,529.6,842.7,529.8,858.1,529.8z"/>
</svg>
